<?xml version="1.0" standalone="no"?>
<!DOCTYPE svg PUBLIC "-//W3C//DTD SVG 1.1//EN" "http://www.w3.org/Graphics/SVG/1.1/DTD/svg11.dtd" >
<svg>
<metadata>
Created by FontForge 20110222 at Wed Apr  9 05:45:37 2014
 By Orthosie Webhosting
2004 T.26 Digital Type Foundry www.t26.com PSID#5135075 designer: Gustavo Piqueira
</metadata>
<defs>
<font id="CabourgLightRegular" horiz-adv-x="537" >
  <font-face 
    font-family="CabourgLightRegular"
    font-weight="400"
    font-stretch="normal"
    units-per-em="1000"
    panose-1="0 0 4 0 0 0 0 0 0 0"
    ascent="800"
    descent="-200"
    x-height="459"
    cap-height="661"
    bbox="-53 -177 1230 816"
    underline-thickness="20"
    underline-position="-123"
    unicode-range="U+0020-2265"
  />
<missing-glyph horiz-adv-x="500" 
d="M63 0v800h375v-800h-375zM125 63h250v675h-250v-675z" />
    <glyph glyph-name=".notdef" horiz-adv-x="500" 
d="M63 0v800h375v-800h-375zM125 63h250v675h-250v-675z" />
    <glyph glyph-name=".null" horiz-adv-x="0" 
 />
    <glyph glyph-name="nonmarkingreturn" horiz-adv-x="300" 
 />
    <glyph glyph-name="space" unicode=" " horiz-adv-x="300" 
 />
    <glyph glyph-name="exclam" unicode="!" horiz-adv-x="187" 
d="M117 101q-32 0 -32 32v526h2q30 0 30 -32v-526zM128 22q0 -30 -27 -30q-26 0 -26 30t26 30q27 0 27 -30z" />
    <glyph glyph-name="quotedbl" unicode="&#x22;" horiz-adv-x="200" 
d="M141 469q-19 0 -19 19v173h1q18 0 18 -19v-173zM94 469q-19 0 -19 19v173v0q19 0 19 -19v-173z" />
    <glyph glyph-name="numbersign" unicode="#" horiz-adv-x="526" 
d="M489 186h-147l-29 -174q-2 -18 -22 -19l31 193h-141l-29 -174q-2 -18 -22 -19l31 193h-89q-19 0 -19 20h111l24 143h-116q-19 0 -19 19h138l29 184q3 18 23 18v0l-33 -202h142l29 184q3 18 23 18v0l-33 -202h99q19 0 19 -18v-1h-121l-23 -143h125q19 0 19 -19v-1z
M349 349h-142l-23 -143h141z" />
    <glyph glyph-name="dollar" unicode="$" horiz-adv-x="494" 
d="M457 221q0 -54 -55.5 -94t-134.5 -43v-91q-20 1 -20 19v72q-76 2 -131 38t-62 87q27 8 38 -16q15 -32 58 -53.5t97 -23.5v209l-14 2q-90 10 -123 24q-57 22 -57 73q0 55 56.5 95t137.5 42v100h1q19 0 19 -19v-81q72 -3 125.5 -37t62.5 -83q-5 -2 -10 -2q-20 0 -29 18v0
q-17 30 -58 49.5t-91 22.5v-174q87 -12 129 -34q61 -33 61 -100zM247 357v172q-66 -2 -114 -33t-48 -72q0 -31 41 -45q29 -11 110 -21zM425 221q0 48 -43 72q-34 18 -115 29v-206q65 3 111.5 34t46.5 71z" />
    <glyph glyph-name="percent" unicode="%" horiz-adv-x="637" 
d="M298 540q0 -50 -36 -85.5t-86 -35.5q-51 0 -87 35.5t-36 85.5q0 49 36 84.5t87 35.5q50 0 86 -35.5t36 -84.5zM531 658l-379 -648q-13 -23 -36 -14l380 649q13 21 35 13zM600 113q0 -49 -36 -84.5t-87 -35.5q-50 0 -86 35.5t-36 84.5q0 50 36 85.5t86 35.5q51 0 87 -35.5
t36 -85.5zM274 540q0 39 -29 67t-69 28q-41 0 -69.5 -28t-28.5 -67q0 -40 28.5 -68t69.5 -28q40 0 69 28t29 68zM575 113q0 40 -28.5 68t-69.5 28q-40 0 -69 -28t-29 -68q0 -39 29 -67.5t69 -28.5q41 0 69.5 28.5t28.5 67.5z" />
    <glyph glyph-name="ampersand" unicode="&#x26;" horiz-adv-x="712" 
d="M712 361q0 -32 -30 -32h-81q-6 0 -6 -5v-130q0 -91 -71 -144t-193 -53q-110 0 -184 41q-87 49 -93 142h-1q0 136 142 175q-114 38 -114 143q0 159 251 159h162q0 -32 -30 -32h-132q-219 0 -219 -127q0 -130 219 -130h87q0 -32 -29 -32h-86q-214 0 -218 -143
q-3 -98 99 -139q62 -25 146 -25q109 0 170.5 44t61.5 121v133v5q0 29 30 29h119z" />
    <glyph glyph-name="quotesingle" unicode="'" horiz-adv-x="131" 
d="M73 469q-20 0 -20 19v173h1q19 0 19 -19v-173z" />
    <glyph glyph-name="parenleft" unicode="(" horiz-adv-x="244" 
d="M195 612q-51 -59 -80.5 -156.5t-29.5 -210.5q0 -112 30 -210.5t80 -157.5q17 -23 -4 -42q-64 60 -101 170t-37 240q0 129 37 239t101 170q20 -19 4 -42z" />
    <glyph glyph-name="parenright" unicode=")" horiz-adv-x="247" 
d="M185 245q0 -130 -37 -240t-101 -170q-20 19 -4 42q51 59 80.5 157.5t29.5 210.5q0 113 -29.5 210.5t-80.5 156.5q-16 23 4 42q64 -60 101 -170t37 -239z" />
    <glyph glyph-name="asterisk" unicode="*" horiz-adv-x="366" 
d="M338 532h-131l63 -108q-17 -10 -26 6l-54 93l-53 -93q-9 -15 -26 -6l63 108h-102q-19 0 -19 20h121l-58 99q16 9 26 -6l48 -84l49 84q9 16 26 6l-58 -99h112q19 0 19 -19v-1z" />
    <glyph glyph-name="plus" unicode="+" horiz-adv-x="603" 
d="M550 218h-230v-192q0 -12 -9 -21t-21 -9h-2v222h-204q-31 0 -31 32h235v186q0 30 32 31v-217h199q31 0 31 -30v-2z" />
    <glyph glyph-name="comma" unicode="," horiz-adv-x="151" 
d="M114 29q0 -22 -11 -46q-12 -27 -30 -37v12q16 14 12 34h-1q-13 0 -22 11t-9 26q0 16 9 26.5t22 10.5q12 0 21 -10.5t9 -26.5z" />
    <glyph glyph-name="hyphen" unicode="-" horiz-adv-x="538" 
d="M492 248q0 -30 -32 -30h-407q0 32 31 32h408v-2z" />
    <glyph glyph-name="hyphen" unicode="&#x2010;" horiz-adv-x="538" 
d="M492 248q0 -30 -32 -30h-407q0 32 31 32h408v-2z" />
    <glyph glyph-name="period" unicode="." horiz-adv-x="151" 
d="M122 29q0 -15 -8.5 -26t-21.5 -11q-12 0 -21 11t-9 26q0 16 9 26.5t21 10.5q13 0 21.5 -10.5t8.5 -26.5z" />
    <glyph glyph-name="slash" unicode="/" horiz-adv-x="316" 
d="M295 662l-231 -652q-8 -23 -32 -14l231 653q11 22 32 13v0z" />
    <glyph glyph-name="zero" unicode="0" horiz-adv-x="774" 
d="M732 326q0 -141 -99.5 -241t-239.5 -100q-141 0 -240.5 100t-99.5 241t99.5 241t240.5 100q140 0 239.5 -100t99.5 -241zM700 326q0 128 -90 218.5t-217 90.5t-217.5 -90.5t-90.5 -218.5q0 -127 90.5 -218t217.5 -91t217 91t90 218z" />
    <glyph glyph-name="one" unicode="1" horiz-adv-x="355" 
d="M237 23q0 -12 -9 -21t-21 -9h-2v634l-108 -94q-8 -7 -19 -7q-15 0 -25 11l127 111q14 12 27 12q30 0 30 -30v-607z" />
    <glyph glyph-name="two" unicode="2" horiz-adv-x="682" 
d="M634 0h-549q-31 0 -32 32v0q0 66 73 116q44 30 165 80q139 57 193 96q89 64 89 154q0 73 -78 115q-68 36 -170 36h-15q-75 0 -136 -32q-65 -35 -83 -91q-8 -27 -37 -21q8 76 81 126t175 50h15q126 0 203 -50.5t77 -132.5q0 -104 -98 -177q-58 -43 -204 -103
q-108 -44 -148 -69q-66 -42 -69 -92q0 -5 5 -5h513q30 0 30 -32z" />
    <glyph glyph-name="three" unicode="3" horiz-adv-x="668" 
d="M620 185q0 -98 -96 -149q-81 -43 -205 -43q-197 0 -266 123q9 6 18 6q16 0 25 -12q65 -85 223 -85q90 0 158 24q111 40 111 136q0 151 -218 151h-164q-30 0 -30 32h166q218 0 218 133q0 128 -218 128h-29q-188 0 -214 -96q-7 -28 -36 -23q8 151 250 151h29
q250 0 250 -160q0 -106 -112 -145q140 -36 140 -171z" />
    <glyph glyph-name="four" unicode="4" horiz-adv-x="827" 
d="M805 184q0 -32 -29 -32h-105v-128q0 -32 -31 -32h-1v160h-562q-24 0 -24 23q0 12 9 20l472 464q9 -9 9 -23q0 -12 -8 -20l-439 -432h543v293q0 32 30 32h2v-325h134z" />
    <glyph glyph-name="five" unicode="5" horiz-adv-x="665" 
d="M622 190q0 -100 -98 -154q-82 -44 -203 -44q-201 0 -268 128q8 5 18 5q15 0 24 -12q65 -89 226 -89q108 0 181 37q88 45 88 129q0 172 -209 172h-272q-30 0 -30 30v236q0 30 29 30h467q0 -30 -28 -32h-431q-5 0 -5 -6v-215q0 -11 11 -11h259q108 0 171 -47
q70 -52 70 -157z" />
    <glyph glyph-name="six" unicode="6" horiz-adv-x="695" 
d="M657 207q0 -105 -77.5 -161t-219.5 -54h-1q-295 5 -295 269v110v24q-1 137 89 205q80 61 220 61q175 0 254 -92q-10 -10 -23 -10q-11 0 -19 7q-72 63 -212 63q-277 0 -277 -234v-24v-110q0 -127 73 -185q65 -52 190 -52q259 0 266 184q3 78 -41 123q-63 66 -211 66
q-126 0 -188 -58q-9 -8 -21 -8t-22 9q68 89 231 89q162 0 234 -75q50 -53 50 -147z" />
    <glyph glyph-name="seven" unicode="7" horiz-adv-x="680" 
d="M661 629q0 -9 -9 -22l-406 -617l-1 1q-14 10 -14 27q0 8 4 15l391 592h-565q-29 0 -29 32h600q29 0 29 -28z" />
    <glyph glyph-name="eight" unicode="8" horiz-adv-x="676" 
d="M628 179q0 -94 -93 -143q-79 -42 -199 -42h-1v0q-121 1 -199 42q-93 49 -93 143q0 137 142 176q-114 38 -114 145q0 86 84 127q68 33 180 33q113 0 180 -33q85 -41 85 -127q0 -101 -126 -142q154 -36 154 -179zM568 500q0 128 -233 128q-232 0 -232 -128q0 -132 218 -132
q102 0 168 29q79 35 79 103zM596 179q0 157 -219 157h-28v1q-14 -1 -28 -1t-28 1v-1q-218 0 -218 -157q0 -78 83 -118q70 -34 177 -34q108 0 178 34q83 40 83 118z" />
    <glyph glyph-name="nine" unicode="9" horiz-adv-x="695" 
d="M647 259q1 -138 -89 -206q-80 -61 -221 -61q-175 0 -253 93q10 9 23 9q11 0 19 -7q72 -63 211 -63q278 0 278 234q0 22 -1 24v110q0 127 -72 185q-65 52 -190 52q-260 0 -266 -184q-3 -77 41 -123q63 -65 210 -65q127 0 189 57q8 8 21 8q12 0 21 -8q-67 -89 -231 -89
q-161 0 -233 75q-50 52 -50 146q0 105 77.5 161t219.5 54h1q295 -5 295 -269v-110v-23z" />
    <glyph glyph-name="colon" unicode=":" horiz-adv-x="151" 
d="M114 354q0 -15 -9 -26t-21 -11q-13 0 -22 11t-9 26t9 26t22 11q12 0 21 -11t9 -26zM114 29q0 -15 -9 -26t-21 -11q-13 0 -21.5 11t-8.5 26q0 16 8.5 26.5t21.5 10.5q12 0 21 -10.5t9 -26.5z" />
    <glyph glyph-name="semicolon" unicode=";" horiz-adv-x="151" 
d="M114 354q0 -16 -9 -26.5t-21 -10.5q-13 0 -22 10.5t-9 26.5q0 15 9 26t22 11q12 0 21 -11t9 -26zM114 29q0 -22 -11 -46q-12 -27 -30 -37v12q16 14 12 34h-1q-13 0 -22 11t-9 26q0 16 9 26.5t22 10.5q12 0 21 -10.5t9 -26.5z" />
    <glyph glyph-name="less" unicode="&#x3c;" horiz-adv-x="485" 
d="M453 91v0l-372 136q-28 11 -28 36q0 26 28 36l372 136v0q7 -20 -11 -26q-83 -31 -354 -129q-14 -6 -14 -17t14 -16l354 -130q18 -6 11 -26z" />
    <glyph glyph-name="equal" unicode="=" horiz-adv-x="535" 
d="M482 312q0 -32 -32 -32h-397v2q0 12 9 21t21 9h399zM482 177q0 -32 -32 -32h-397v2q0 12 9 21t21 9h399z" />
    <glyph glyph-name="greater" unicode="&#x3e;" horiz-adv-x="485" 
d="M453 263q0 -26 -27 -36l-373 -136v0q-7 20 12 26q80 30 353 129q14 6 14 17t-14 16l-354 130q-18 6 -11 26v0l373 -136q27 -11 27 -36z" />
    <glyph glyph-name="question" unicode="?" horiz-adv-x="462" 
d="M430 513q0 -60 -39 -101q-23 -25 -83.5 -60t-83.5 -59q-36 -40 -36 -99v-99q-32 0 -32 30v69q0 71 44 119q25 28 91 66q56 33 75 53q32 33 32 81q0 53 -53 85q-48 30 -117 30q-53 0 -97 -18.5t-62 -46.5q-15 -23 -40 -12q11 47 67 78t132 31q88 0 145 -42t57 -105z
M199 23q0 -30 -26 -30q-27 0 -27 30q0 31 27 31q26 0 26 -31z" />
    <glyph glyph-name="at" unicode="@" horiz-adv-x="764" 
d="M710 326q0 -69 -24 -127q-14 -35 -50 -35h-77q-27 0 -47 21t-20 50v97q0 56 -37.5 95.5t-90.5 39.5t-90.5 -39.5t-37.5 -95.5t37.5 -96t90.5 -40h83q32 0 32 -32h-115q-66 0 -113 49.5t-47 118.5t47 118t113 49t113 -49t47 -118v-97q0 -16 10.5 -27.5t24.5 -11.5h71
q21 0 29 21q19 51 19 109q0 128 -90 218.5t-217 90.5t-217 -90.5t-90 -218.5q0 -126 89 -213t218 -87h114q31 0 31 -32h-145q-142 0 -240.5 96t-98.5 236q0 141 99.5 241t239.5 100t239.5 -100t99.5 -241z" />
    <glyph glyph-name="A" unicode="A" horiz-adv-x="741" 
d="M719 -3q-6 -4 -14 -4q-20 0 -28 18l-84 181h-446l-83 -181q-9 -18 -29 -18q-7 0 -14 3l289 623q20 43 60 43q41 0 61 -43zM578 224l-176 381q-12 25 -32 25t-31 -25l-177 -381h416z" />
    <glyph glyph-name="B" unicode="B" horiz-adv-x="710" 
d="M656 182q0 -183 -250 -183h-299q-32 0 -32 31v596q0 31 32 31h288q222 0 222 -156q0 -104 -101 -142q140 -39 140 -177zM624 182q0 158 -218 158h-265q0 32 32 32h222q190 0 190 129q0 124 -190 124h-282q-6 0 -6 -6q0 16 0 -22v-151v-409q0 -6 5 -6h294q218 0 218 151z
" />
    <glyph glyph-name="C" unicode="C" horiz-adv-x="723" 
d="M680 462q-7 -3 -14 -3q-19 0 -28 16q-40 71 -110 113t-152 42q-125 0 -213 -89t-88 -214t88 -213.5t213 -88.5q71 0 134.5 32.5t106.5 88.5q9 13 25 13q10 0 18 -5q-45 -74 -121 -117.5t-163 -43.5q-138 0 -235.5 98t-97.5 236q0 139 97.5 237t235.5 98q99 0 181.5 -54.5
t122.5 -145.5z" />
    <glyph glyph-name="D" unicode="D" horiz-adv-x="701" 
d="M669 327q0 -138 -92 -232.5t-223 -94.5h-248q-31 0 -31 30v595q2 32 32 32h247q131 0 223 -96t92 -234zM637 327q0 125 -82.5 211.5t-200.5 86.5h-241q-6 0 -6 -6v-582q0 -5 5 -5h242q119 0 201 85.5t82 209.5z" />
    <glyph glyph-name="E" unicode="E" horiz-adv-x="669" 
d="M626 657q0 -32 -31 -32h-482q-6 0 -6 -6v-258h433q0 -32 -30 -32h-403v-292q0 -5 5 -5h451q31 0 31 -32q15 0 -18 -1h-125.5h-343.5q-32 0 -32 30v596q0 32 32 32h519z" />
    <glyph glyph-name="F" unicode="F" horiz-adv-x="634" 
d="M602 657q0 -32 -31 -32h-458q-6 0 -6 -6v-258h409q0 -32 -31 -32h-378v-305q0 -31 -32 -31v632q0 32 32 32h495z" />
    <glyph glyph-name="G" unicode="G" horiz-adv-x="740" 
d="M697 314q-5 -134 -101.5 -227.5t-230.5 -93.5q-138 0 -235.5 98t-97.5 237q0 138 97.5 236t235.5 98q104 0 190 -59q77 -55 115 -141q-7 -4 -15 -4q-18 0 -26 15q-40 73 -110.5 115t-153.5 42q-125 0 -213 -88.5t-88 -213.5t88 -214t213 -89q119 0 205.5 82.5t94.5 200.5
q-2 4 -6 4h-216q-32 0 -32 32h255q13 0 22.5 -9t8.5 -21z" />
    <glyph glyph-name="H" unicode="H" horiz-adv-x="710" 
d="M635 -7q-32 1 -32 31v304h-496v-304q0 -30 -32 -31v668q32 0 32 -31v-270h496v270q0 31 32 31v-668z" />
    <glyph glyph-name="I" unicode="I" horiz-adv-x="203" 
d="M117 -7h-1q-13 0 -22 9.5t-9 21.5v637q32 0 32 -31v-637z" />
    <glyph glyph-name="J" unicode="J" horiz-adv-x="571" 
d="M507 231q0 -98 -67 -167t-163 -71v0h-2h-3v0q-94 2 -160.5 69.5t-68.5 163.5q30 2 34 -25q11 -75 67 -125.5t131 -50.5q82 0 141 60.5t59 145.5v400q0 30 32 30v-430z" />
    <glyph glyph-name="K" unicode="K" horiz-adv-x="658" 
d="M636 8q-9 -14 -26 -14q-10 0 -17 6l-435 315q-12 8 -12 21q-1 14 9 21l414 298q9 6 19 6q17 0 26 -14l-432 -310zM107 24q0 -30 -32 -31v667q32 0 32 -30v-606z" />
    <glyph glyph-name="L" unicode="L" horiz-adv-x="587" 
d="M566 0q13 0 -17 0h-119h-323q-32 0 -32 30v630q32 0 32 -30v-592q0 -5 5 -6h423q31 0 31 -32z" />
    <glyph glyph-name="M" unicode="M" horiz-adv-x="858" 
d="M783 -7q-32 1 -32 32v587l-281 -540q-16 -31 -41 -31t-41 31l-281 540v-590q-3 -28 -32 -29v646q2 22 26 22q16 0 23 -13v0l292 -561q7 -14 13 -14q5 0 12 14l292 561h1q7 13 23 13q26 0 26 -22v-646z" />
    <glyph glyph-name="N" unicode="N" horiz-adv-x="712" 
d="M637 25q0 -31 -29 -31q-14 0 -23 11l-478 616v-596q0 -31 -32 -32v636q0 32 29 32q11 0 20 -10l481 -620v599q0 31 32 31v-636z" />
    <glyph glyph-name="O" unicode="O" horiz-adv-x="742" 
d="M710 330q0 -141 -99.5 -241t-239.5 -100t-239.5 100t-99.5 241t99.5 241t239.5 100t239.5 -100t99.5 -241zM678 330q0 127 -90 218t-217 91t-217 -91t-90 -218q0 -128 90 -218.5t217 -90.5t217 90.5t90 218.5z" />
    <glyph glyph-name="P" unicode="P" horiz-adv-x="649" 
d="M607 471q0 -102 -79 -151q-64 -40 -172 -40h-210q0 32 31 32h179q219 0 219 159q0 154 -219 154h-244q-4 0 -5 -5v-597q0 -29 -32 -30v634q0 30 32 30h249q251 0 251 -186z" />
    <glyph glyph-name="Q" unicode="Q" horiz-adv-x="790" 
d="M779 -9h-402q-143 0 -244 98.5t-101 240.5t101 244.5t244 102.5q142 0 243 -102.5t101 -244.5q0 -164 -130 -265q-8 -6 -18 -6q-16 0 -27 14q143 92 143 257q0 129 -91.5 222t-220.5 93t-221 -93t-92 -222t91.5 -218t221.5 -89h370q31 0 32 -32z" />
    <glyph glyph-name="R" unicode="R" horiz-adv-x="671" 
d="M650 1q-9 -7 -20 -7q-16 0 -25 12l-216 274h-12h-233q0 32 30 32h203q219 0 219 159q0 154 -219 154h-265q-4 0 -5 -5v-597q0 -29 -32 -30v634q0 30 32 30h270q251 0 251 -186q0 -168 -200 -189z" />
    <glyph glyph-name="S" unicode="S" horiz-adv-x="679" 
d="M626 168q0 -74 -87 -125q-83 -48 -200 -48q-116 0 -198.5 48t-86.5 118q27 6 36 -20q18 -49 88.5 -81.5t160.5 -32.5q104 0 179.5 42t75.5 99q0 71 -89 116q-53 26 -193 61q-131 32 -179 57q-80 39 -80 104t83 109.5t203 44.5q119 0 201.5 -43.5t84.5 -106.5
q-26 -6 -36 18q-17 42 -88 71t-162 29q-103 0 -178.5 -36t-75.5 -86q0 -48 72 -81q44 -20 163 -49q148 -37 206 -68q100 -52 100 -140z" />
    <glyph glyph-name="T" unicode="T" horiz-adv-x="605" 
d="M584 656q0 -32 -32 -32h-233v-630q-32 0 -32 30v600h-234q-32 0 -32 32h563z" />
    <glyph glyph-name="U" unicode="U" horiz-adv-x="762" 
d="M698 661v-336q0 -151 -93 -244q-88 -88 -224 -88t-224 88q-93 93 -93 244v336q32 -1 32 -32v-301q0 -136 78.5 -219.5t206.5 -83.5t206.5 83.5t78.5 219.5v301q0 31 32 32z" />
    <glyph glyph-name="V" unicode="V" horiz-adv-x="751" 
d="M730 658l-294 -622q-20 -43 -60 -43q-41 0 -61 43l-294 622q7 3 14 3q20 0 29 -19l280 -592q12 -25 32 -25t31 24l280 593q9 19 29 19q8 0 14 -3z" />
    <glyph glyph-name="W" unicode="W" horiz-adv-x="988" 
d="M967 659l-218 -622q-16 -45 -50 -45q-33 0 -49 45l-156 446l-156 -446q-16 -45 -50 -45q-33 0 -49 45l-218 622q6 2 11 2q23 0 30 -21l207 -592q8 -24 19 -24t19 23l162 462q5 15 25 15t25 -16l161 -461q8 -23 19 -23t19 23l208 593q7 21 30 21q5 0 11 -2z" />
    <glyph glyph-name="X" unicode="X" horiz-adv-x="663" 
d="M642 653l-289 -326l288 -325q-9 -9 -21 -9q-15 0 -24 11l-265 299l-265 -300q-9 -10 -23 -10q-12 0 -21 9l288 325l-289 326q9 8 22 8q14 0 24 -11l264 -299l265 299q10 11 24 11q12 0 22 -8z" />
    <glyph glyph-name="Y" unicode="Y" horiz-adv-x="722" 
d="M701 654l-325 -434v-226q-32 0 -32 31v197l-323 432h1q8 7 18 7q14 0 24 -10l297 -398l296 397q9 11 24 11q11 0 20 -7z" />
    <glyph glyph-name="Z" unicode="Z" horiz-adv-x="723" 
d="M680 625q0 -14 -11 -24l-583 -570h553q32 0 32 -32h-588q-30 0 -30 32q0 13 12 24l583 570h-557q-32 0 -32 32q-19 0 23 0h152q-123 0 414 0q32 0 32 -32z" />
    <glyph glyph-name="bracketleft" unicode="[" horiz-adv-x="210" 
d="M183 659q0 -32 -28 -32h-64q-6 0 -6 -6v-761q0 -5 6 -5h63q29 0 29 -32h-98q-32 0 -32 30v775q0 31 32 31h98z" />
    <glyph glyph-name="backslash" unicode="\" horiz-adv-x="316" 
d="M295 -4q-24 -9 -32 14l-231 652v0q21 9 32 -13z" />
    <glyph glyph-name="bracketright" unicode="]" horiz-adv-x="206" 
d="M162 -147q0 -30 -32 -30h-98q0 32 29 32h63q6 0 6 5v761q0 6 -6 6h-64q-28 0 -28 32h98q32 0 32 -31v-775z" />
    <glyph glyph-name="asciicircum" unicode="^" horiz-adv-x="307" 
d="M290 726q-31 -13 -54 3q0 1 -46 32l-41 -28q-25 -21 -58 -7l67 47q11 7 13 9v0q19 13 39 0z" />
    <glyph glyph-name="underscore" unicode="_" horiz-adv-x="605" 
d="M568 -40q0 -19 -19 -19h-517v1q0 18 19 18h517z" />
    <glyph glyph-name="grave" unicode="`" horiz-adv-x="216" 
d="M200 710q0 -6 -2 -12q-26 17 -98 69q-15 10 -15 29q0 6 3 13q26 -18 97 -70q15 -10 15 -29z" />
    <glyph glyph-name="a" unicode="a" horiz-adv-x="529" 
d="M476 -6q-32 0 -32 32v201q0 86 -56 147t-134 61q-79 0 -134.5 -61t-55.5 -147t52 -142.5t131 -56.5q96 0 149 81q13 -10 13 -25q0 -13 -9 -22q-61 -66 -153 -66t-153.5 66t-61.5 165t65 169.5t157 70.5t157 -70.5t65 -169.5v-233z" />
    <glyph glyph-name="b" unicode="b" horiz-adv-x="546" 
d="M514 232q0 -98 -67.5 -167.5t-163.5 -69.5q-95 0 -162.5 69.5t-67.5 167.5q0 88 56 154q9 10 24 10q13 0 22 -9q-70 -61 -70 -155q0 -85 58.5 -145t139.5 -60q82 0 140.5 60t58.5 145q0 84 -58.5 144t-140.5 60h-127q-38 0 -65.5 28t-27.5 67v130q32 -1 32 -32v-98
q0 -26 18 -44.5t43 -18.5h127q96 0 163.5 -69.5t67.5 -166.5z" />
    <glyph glyph-name="c" unicode="c" horiz-adv-x="490" 
d="M458 323q-24 -11 -40 11q-25 47 -68.5 74.5t-95.5 27.5q-79 0 -134.5 -60t-55.5 -145q0 -84 55.5 -144t134.5 -60q93 0 150 80q10 13 26 13q9 0 17 -5q-29 -55 -81 -87.5t-112 -32.5q-92 0 -157 69.5t-65 166.5q0 98 65 167.5t157 69.5q68 0 123.5 -39.5t80.5 -105.5z
" />
    <glyph glyph-name="d" unicode="d" horiz-adv-x="543" 
d="M484 230q0 -97 -67.5 -166.5t-162.5 -69.5q-92 0 -157 69.5t-65 166.5q0 98 65 167t157 69q90 0 153 -59q10 -8 10 -22q0 -13 -11 -23q-58 72 -152 72q-79 0 -134.5 -59.5t-55.5 -144.5q0 -84 55.5 -144t134.5 -60q82 0 140 60t58 144v399q0 32 32 32v-431z" />
    <glyph glyph-name="e" unicode="e" horiz-adv-x="524" 
d="M492 244q0 -12 -9.5 -20.5t-22.5 -8.5h-395q6 -79 62.5 -133.5t134.5 -54.5q97 0 157 79q9 13 25 13q10 0 18 -5q-31 -55 -84.5 -87t-115.5 -32q-95 0 -162.5 69.5t-67.5 166.5q0 98 67.5 167t162.5 69q92 0 159 -65t71 -158zM459 251q-7 78 -63.5 131t-133.5 53
q-78 0 -134.5 -54.5t-62.5 -133.5h389q4 0 5 4z" />
    <glyph glyph-name="f" unicode="f" horiz-adv-x="350" 
d="M350 588q-17 -15 -37 -4q-37 44 -93 44q-52 0 -88 -39t-36 -94v-104h162q0 -32 -30 -32h-132v-446q0 -32 -32 -32v614q0 68 45.5 116.5t110.5 48.5q85 0 130 -72z" />
    <glyph glyph-name="g" unicode="g" 
d="M505 242l-1 -1q-2 -95 -61 -162q-9 -9 -22 -9t-23 10q75 63 74 162q0 84 -59.5 143.5t-144.5 59.5q-84 0 -144 -59.5t-60 -143.5q0 -85 60.5 -147.5t143.5 -62.5h115q40 0 67.5 -25t27.5 -61t-26.5 -61.5t-64.5 -25.5h-171q0 13 9.5 22.5t23.5 9.5h138q24 0 41.5 16.5
t17.5 38.5q0 23 -18 38.5t-45 15.5h-115q-96 0 -166 72t-70 170q0 97 69.5 166t166.5 69q99 0 169.5 -69t67.5 -166z" />
    <glyph glyph-name="h" unicode="h" horiz-adv-x="567" 
d="M513 -6q-32 0 -32 32v207q0 84 -55.5 144t-134.5 60q-78 0 -134 -60t-56 -144v-209q0 -31 -31 -31l-1 668q32 0 32 -32v-274q30 52 80.5 83t109.5 31q92 0 157 -69.5t65 -166.5v-239z" />
    <glyph glyph-name="i" unicode="i" horiz-adv-x="182" 
d="M113 589q0 -22 -22 -22t-22 22t22 22t22 -22zM107 437q0 13 0 -16v-115v-312q-32 0 -32 30v445q32 0 32 -32z" />
    <glyph glyph-name="j" unicode="j" horiz-adv-x="234" 
d="M170 589q0 -22 -22 -22q-21 0 -21 22t21 22q22 0 22 -22zM164 20q0 -69 -45.5 -117.5t-109.5 -48.5h-62q0 32 31 32h31q51 0 87 39.5t36 94.5v418q0 13 9.5 22t22.5 9v-449z" />
    <glyph glyph-name="k" unicode="k" horiz-adv-x="476" 
d="M465 6q-9 -10 -23 -10q-13 0 -22 8l-285 265q-10 9 -10 24t10 25l263 260q8 8 20 8q14 0 24 -10l-287 -282zM96 23q0 -30 -32 -30v668q32 0 32 -32v-606z" />
    <glyph glyph-name="l" unicode="l" horiz-adv-x="171" 
d="M101 629q0 18 0 -24v-164v-447q-32 0 -32 30v637q32 0 32 -32z" />
    <glyph glyph-name="m" unicode="m" horiz-adv-x="707" 
d="M648 -7q-13 0 -22.5 9.5t-9.5 22.5v278q0 55 -36 94t-87 39t-87 -39t-36 -94v-310q-32 0 -32 33v277q0 55 -36.5 94t-87.5 39t-87 -39t-36 -94v-278q0 -32 -32 -32v310q0 69 45.5 117t109.5 48q45 0 82.5 -25t57.5 -67q19 42 56.5 67t82.5 25q64 0 109.5 -48t45.5 -117
v-310z" />
    <glyph glyph-name="n" unicode="n" horiz-adv-x="550" 
d="M497 -7q-13 0 -22.5 9.5t-9.5 22.5v222q0 79 -55.5 134.5t-134.5 55.5q-78 0 -134 -55.5t-56 -134.5v-221q0 -32 -32 -33v254q0 92 65.5 157t156.5 65q92 0 157 -65t65 -157v-254z" />
    <glyph glyph-name="o" unicode="o" 
d="M505 231q0 -98 -69.5 -168t-167.5 -70q-97 0 -166.5 70t-69.5 168q0 99 69.5 169t166.5 70q98 0 167.5 -70t69.5 -169zM472 231q0 85 -59.5 146t-144.5 61q-84 0 -144 -61t-60 -146t60 -145.5t144 -60.5q85 0 144.5 60.5t59.5 145.5z" />
    <glyph glyph-name="p" unicode="p" 
d="M505 232q0 -97 -65 -166.5t-157 -69.5q-89 0 -153 59q-9 9 -9 23q0 13 10 23q59 -73 152 -73q79 0 134.5 60t55.5 144q0 85 -55.5 144.5t-134.5 59.5q-81 0 -139.5 -59.5t-58.5 -144.5v-378q0 -31 -32 -31v409q0 98 67.5 167t162.5 69q92 0 157 -69t65 -167z" />
    <glyph glyph-name="q" unicode="q" horiz-adv-x="546" 
d="M492 233q0 -89 -55 -154q-10 -11 -24 -11q-13 0 -23 9q70 61 70 156q0 84 -58 144t-140 60t-140 -60t-58 -144q0 -85 58 -145t140 -60h127q39 0 66 -27.5t27 -67.5v-110q-32 1 -32 31v79q0 26 -18 44.5t-43 18.5h-127q-95 0 -162.5 69.5t-67.5 167.5q0 97 67.5 166.5
t162.5 69.5t162.5 -69.5t67.5 -166.5z" />
    <glyph glyph-name="r" unicode="r" horiz-adv-x="365" 
d="M344 395q-9 -7 -20 -7q-14 0 -24 11q-35 38 -86 38t-87 -39t-36 -94v-279q0 -31 -32 -31v310q0 68 45.5 116.5t109.5 48.5q83 0 130 -74z" />
    <glyph glyph-name="s" unicode="s" horiz-adv-x="484" 
d="M441 130q0 -57 -59 -97t-143 -40q-78 0 -136 36t-65 89q26 8 38 -17q16 -33 61.5 -54.5t101.5 -21.5q69 0 119.5 31t50.5 74q0 52 -53 76q-38 17 -139 29q-89 11 -123 24q-57 23 -57 73q0 57 59.5 97.5t142.5 40.5q77 0 134 -34.5t66 -85.5q-5 -2 -10 -2q-20 0 -29 18v0
q-18 31 -62.5 51.5t-98.5 20.5q-69 0 -119.5 -31.5t-50.5 -74.5q0 -30 41 -45q29 -10 110 -20q105 -13 147 -32q74 -32 74 -105z" />
    <glyph glyph-name="t" unicode="t" horiz-adv-x="354" 
d="M338 52q-46 -58 -118 -58q-65 0 -110.5 48.5t-45.5 116.5v502q32 0 32 -31v-161h158q0 -32 -30 -32h-128v-278q0 -55 36 -94t88 -39q43 0 77 29q22 16 41 -3z" />
    <glyph glyph-name="u" unicode="u" horiz-adv-x="550" 
d="M497 230q0 -98 -65 -167t-157 -69q-91 0 -156.5 69t-65.5 167v239q32 0 32 -30v-209q0 -84 56 -144t134 -60q79 0 134.5 60t55.5 144v209q0 30 32 30v-239z" />
    <glyph glyph-name="v" unicode="v" horiz-adv-x="530" 
d="M508 467l-185 -430q-19 -44 -58 -44t-58 44l-186 430q7 2 13 2q21 0 29 -18q48 -111 173 -401q11 -25 29 -25t28 25l175 403q9 17 27 17q7 0 13 -3z" />
    <glyph glyph-name="w" unicode="w" horiz-adv-x="729" 
d="M707 468l-138 -430q-15 -46 -48 -46q-30 0 -47 45l-110 288l-110 -289q-17 -44 -47 -44q-33 0 -47 45l-139 431q5 2 10 2q23 0 30 -22l129 -401q7 -20 17 -20q9 0 17 21l117 305q7 20 23 20t23 -18l117 -307q8 -21 18 -21t16 20l129 401q7 22 30 22q5 0 10 -2z" />
    <glyph glyph-name="x" unicode="x" horiz-adv-x="489" 
d="M457 462l-192 -232l190 -229q-9 -7 -21 -7q-14 0 -24 11l-165 200l-166 -200q-9 -11 -24 -11q-12 0 -21 7l190 229l-192 232q9 8 21 8q14 0 23 -11l169 -204l168 204q9 11 23 11q12 0 21 -8z" />
    <glyph glyph-name="y" unicode="y" horiz-adv-x="551" 
d="M497 236q-3 -96 -61 -158q-8 -9 -21 -9q-14 0 -23 11q73 62 73 156v203q0 30 32 30v-233zM472 -53q0 -35 -24.5 -57.5t-61.5 -22.5h-171q1 32 32 32h139q54 0 54 48q0 52 -58 52h-107q-92 0 -157 69.5t-65 167.5v233q32 0 32 -30v-203q0 -85 56 -145t134 -60h107
q39 0 64.5 -23.5t25.5 -60.5z" />
    <glyph glyph-name="z" unicode="z" horiz-adv-x="563" 
d="M526 427q0 -13 -8 -22l-444 -373h414q29 0 30 -32h-447q-28 3 -28 32q0 16 10 24l442 371h-393q-30 0 -30 32h424q30 0 30 -32z" />
    <glyph glyph-name="braceleft" unicode="{" horiz-adv-x="280" 
d="M237 -177h-34q-41 0 -66 26t-31 88q-3 28 -1 100q4 144 -28 176q-16 16 -44 19q-23 2 -23 25h15q34 0 52 19q32 33 28 177q-2 72 1 99q6 63 32 90q24 24 65 24h34q0 -25 -23 -25h-11q-62 0 -71 -88q-4 -34 -2 -101.5t-1 -100.5q-8 -81 -52 -106q44 -26 52 -106
q3 -34 1 -101.5t2 -101.5q9 -87 71 -87h11q23 0 23 -26z" />
    <glyph glyph-name="bar" unicode="|" horiz-adv-x="150" 
d="M107 23q0 -30 -32 -30v636q0 32 30 32h2v-638z" />
    <glyph glyph-name="braceright" unicode="}" horiz-adv-x="285" 
d="M270 257q0 -23 -23 -25q-29 -3 -44 -19q-32 -32 -28 -176q2 -72 -1 -100q-6 -62 -31.5 -88t-65.5 -26h-34q0 26 23 26h11q62 0 71 87q3 34 1 101.5t2 101.5q7 80 51 106q-44 25 -51 106q-4 33 -2 100.5t-1 101.5q-9 88 -71 88h-11q-23 0 -23 25h34q40 0 64 -24
q27 -27 33 -90q3 -27 1 -99q-4 -144 28 -177q18 -19 52 -19h15z" />
    <glyph glyph-name="asciitilde" unicode="~" horiz-adv-x="289" 
d="M273 768q0 -18 -14 -29.5t-32 -11.5q-16 0 -57 11q-46 13 -60 6q-16 -7 -23 -24q-2 5 -2 12v0q1 33 20 41q11 5 24 5q12 0 59 -14q39 -11 53 -5q19 8 27 28q5 -10 5 -19z" />
    <glyph glyph-name="nonbreakingspace" unicode="&#xa0;" horiz-adv-x="150" 
 />
    <glyph glyph-name="exclamdown" unicode="&#xa1;" horiz-adv-x="187" 
d="M128 459q0 -30 -27 -30q-26 0 -26 30q0 31 26 31q27 0 27 -31zM118 -177h-2q-30 0 -30 32v533q32 0 32 -32v-533z" />
    <glyph glyph-name="cent" unicode="&#xa2;" horiz-adv-x="490" 
d="M458 417q-24 -11 -40 10q-53 100 -160 102v-402q90 3 147 81q9 12 25 12q9 0 17 -4q-28 -54 -79 -86.5t-110 -34.5v-102q-19 0 -19 19v78q-87 6 -147 74t-60 161q0 94 60 162t147 74v99h1q18 0 18 -19v-80q67 -1 121 -40t79 -104zM239 122v407q-73 -6 -124 -65t-51 -139
t51 -138.5t124 -64.5z" />
    <glyph glyph-name="sterling" unicode="&#xa3;" horiz-adv-x="554" 
d="M522 32v-1q-1 -27 -27 -31h-463v1q2 27 26 31h31q72 96 72 162q0 41 -34 99h-66q0 20 19 20h35q-53 87 -53 153q0 78 48 130q56 60 159 60q80 0 137 -34.5t64 -86.5q-26 -8 -38 16q-16 32 -61.5 52.5t-101.5 20.5q-101 0 -146 -65q-29 -41 -29 -93q0 -57 50 -140l8 -13
h244q0 -20 -19 -20h-213q30 -55 30 -100q0 -69 -65 -161h393z" />
    <glyph glyph-name="currency" unicode="&#xa4;" horiz-adv-x="782" 
d="M750 481q-27 -5 -42 16q-43 61 -109 95t-140 34q-113 0 -198.5 -73t-101.5 -182h465q0 -20 -19 -20h-448q-2 -14 -2 -26q0 -15 2 -30h423q0 -19 -18 -19h-403q16 -94 86 -161q88 -84 214 -84q87 0 162 48q31 25 62 49q19 21 45 13q-46 -66 -117 -102.5t-152 -36.5
q-137 0 -233 93q-77 75 -93 181h-128v1q0 18 19 18h106q-1 16 -1 30q0 13 1 26h-81v1q0 19 19 19h64q17 121 110 202.5t217 81.5q91 0 169.5 -47t121.5 -127z" />
    <glyph glyph-name="yen" unicode="&#xa5;" horiz-adv-x="714" 
d="M703 652l-266 -355h170q0 -18 -17 -20h-167l-28 -37h212q-1 -19 -19 -19h-207l-3 -3v-226q-32 0 -32 31v198h-237v1q0 18 19 18h204l-28 37h-195v1q0 19 19 19h161l-265 355v1q8 6 18 6q14 0 24 -10l297 -398l297 397q8 11 23 11q11 0 20 -7z" />
    <glyph glyph-name="section" unicode="&#xa7;" horiz-adv-x="512" 
d="M459 134q0 -57 -58.5 -95.5t-143.5 -38.5q-81 0 -138 35t-63 88q26 8 37 -16q16 -32 61.5 -53.5t102.5 -21.5q69 0 119.5 30t50.5 72q0 50 -53 73q-38 16 -140 28q-88 11 -122 24q-57 22 -57 71q0 65 64 110q-66 22 -66 75q0 56 58.5 94.5t143.5 38.5q78 0 134.5 -33
t65.5 -84q-5 -1 -11 -1q-19 0 -28 16q-17 31 -61.5 50.5t-99.5 19.5q-69 0 -119.5 -30t-50.5 -71q0 -30 41 -44q29 -10 110 -20q105 -12 147 -30q74 -32 74 -103q0 -52 -63 -85q65 -32 65 -99zM425 318q0 51 -53 73q-38 17 -139 29q-47 5 -69 9v0q-77 -36 -77 -99
q0 -29 40 -43q30 -10 111 -20q76 -9 112 -18q75 25 75 69z" />
    <glyph glyph-name="dieresis" unicode="&#xa8;" horiz-adv-x="286" 
d="M254 754q0 -26 -30 -26q-31 0 -31 26t31 26q30 0 30 -26zM130 754q0 -26 -30 -26q-31 0 -31 26t31 26q30 0 30 -26z" />
    <glyph glyph-name="copyright" unicode="&#xa9;" horiz-adv-x="451" 
d="M408 480q0 -74 -53.5 -127t-128.5 -53q-76 0 -129.5 53t-53.5 127t53.5 126.5t129.5 52.5q75 0 128.5 -52.5t53.5 -126.5zM394 480q0 68 -49.5 117t-118.5 49q-70 0 -119.5 -49t-49.5 -117q0 -69 49.5 -117.5t119.5 -48.5q69 0 118.5 48.5t49.5 117.5zM323 519l-5 -3
q-13 -6 -20 6q-24 43 -72 43q-35 0 -59 -24.5t-24 -59.5q0 -34 24 -59t59 -25q41 0 66 34q9 12 21 4l4 -3l-3 -5q-30 -50 -88 -50q-43 0 -73.5 30.5t-30.5 73.5q0 44 30.5 74.5t73.5 30.5q67 0 95 -62z" />
    <glyph glyph-name="ordfeminine" unicode="&#xaa;" horiz-adv-x="339" 
d="M265 542v-117q-25 0 -25 25v92q0 38 -25 64.5t-61 26.5t-61.5 -26.5t-25.5 -64.5t25.5 -65t61.5 -27h47q24 0 24 -24h-71q-46 0 -78.5 34t-32.5 82t32.5 82t78.5 34t78.5 -34t32.5 -82zM285 334h-199q-19 0 -19 19h200q18 0 18 -19z" />
    <glyph glyph-name="guillemotleft" unicode="&#xab;" horiz-adv-x="495" 
d="M463 147h-1l-191 86q-27 12 -27 36t27 36l191 86h1q6 -20 -13 -28l-170 -76q-15 -8 -15 -18q0 -11 15 -18l172 -77q17 -9 11 -27zM272 147h-1l-191 86q-27 12 -27 36t27 36l191 86h1q6 -20 -13 -28l-170 -76q-15 -8 -15 -18q0 -11 15 -18l172 -77q17 -9 11 -27z" />
    <glyph glyph-name="registered" unicode="&#xae;" horiz-adv-x="451" 
d="M408 480q0 -74 -53.5 -127t-128.5 -53q-76 0 -129.5 53t-53.5 127t53.5 126.5t129.5 52.5q75 0 128.5 -52.5t53.5 -126.5zM394 480q0 68 -49.5 117t-118.5 49q-70 0 -119.5 -49t-49.5 -117q0 -69 49.5 -117.5t119.5 -48.5q69 0 118.5 48.5t49.5 117.5zM321 388
q0 -2 -3 -4q-12 -9 -21 2l-61 78h-0.5h-0.5h-44v6q0 15 15 15h29q58 0 58 41q0 39 -58 39h-67q1 -21 0 -170q0 -14 -15 -14h-6v191q0 14 15 14h73q79 0 79 -60q0 -49 -54 -59l3 -4v0l53 -68q5 -5 5 -7z" />
    <glyph glyph-name="macron" unicode="&#xaf;" horiz-adv-x="250" 
d="M239 769q-7 -26 -35 -27h-151q8 26 34 27h152z" />
    <glyph glyph-name="macron" unicode="&#x2c9;" horiz-adv-x="250" 
d="M239 769q-7 -26 -35 -27h-151q8 26 34 27h152z" />
    <glyph glyph-name="degree" unicode="&#xb0;" horiz-adv-x="266" 
d="M213 580q0 -33 -23.5 -56t-56.5 -23t-56.5 23t-23.5 56q0 32 23.5 55t56.5 23t56.5 -23t23.5 -55zM197 580q0 25 -19 43.5t-45 18.5t-44.5 -18.5t-18.5 -43.5q0 -26 18.5 -44t44.5 -18t45 18t19 44z" />
    <glyph glyph-name="acute" unicode="&#xb4;" horiz-adv-x="216" 
d="M184 796q0 -18 -15 -29l-97 -69q-3 6 -3 12q0 19 15 29l97 70q3 -7 3 -13z" />
    <glyph glyph-name="paragraph" unicode="&#xb6;" horiz-adv-x="405" 
d="M373 660q0 -19 -18 -19h-37v-754h-1q-18 0 -18 18v736h-51v-754v0q-19 0 -19 18v408h-43q-64 0 -109 50.5t-45 122.5t45 123t109 51h34v0h153z" />
    <glyph glyph-name="periodcentered" unicode="&#xb7;" horiz-adv-x="151" 
d="M122 237q0 -16 -8.5 -26.5t-21.5 -10.5q-12 0 -21 10.5t-9 26.5q0 15 9 26t21 11q13 0 21.5 -11t8.5 -26z" />
    <glyph glyph-name="periodcentered" unicode="&#x2219;" horiz-adv-x="151" 
d="M122 237q0 -16 -8.5 -26.5t-21.5 -10.5q-12 0 -21 10.5t-9 26.5q0 15 9 26t21 11q13 0 21.5 -11t8.5 -26z" />
    <glyph glyph-name="cedilla" unicode="&#xb8;" horiz-adv-x="160" 
d="M94 -70q0 -25 -11.5 -42.5t-27.5 -17.5h-2v120h41v-60z" />
    <glyph glyph-name="ordmasculine" unicode="&#xba;" horiz-adv-x="341" 
d="M288 538q0 -50 -36 -85.5t-87 -35.5q-50 0 -86 35.5t-36 85.5t36 85.5t86 35.5q51 0 87 -35.5t36 -85.5zM276 353q0 -19 -18 -19h-200q0 19 19 19v0h199zM263 538q0 39 -28.5 67t-69.5 28q-40 0 -68.5 -28t-28.5 -67q0 -40 28.5 -68t68.5 -28q41 0 69.5 28t28.5 68z" />
    <glyph glyph-name="guillemotright" unicode="&#xbb;" horiz-adv-x="495" 
d="M463 269q0 -24 -27 -36l-191 -86h-1q-6 18 11 27l172 77q15 7 15 18q0 10 -15 18l-170 76q-19 8 -13 28h1l191 -86q27 -12 27 -36zM272 269q0 -24 -27 -36l-191 -86h-1q-6 18 11 27l172 77q15 7 15 18q0 10 -15 18l-170 76q-19 8 -13 28h1l191 -86q27 -12 27 -36z" />
    <glyph glyph-name="questiondown" unicode="&#xbf;" horiz-adv-x="465" 
d="M316 459q0 -30 -27 -30q-26 0 -26 30t26 30q27 0 27 -30zM433 -68q-11 -47 -67 -78t-132 -31q-88 0 -145 41.5t-57 105.5q0 60 39 101q23 25 84 60t83 59q36 39 36 99v101q32 0 32 -30v-71q0 -71 -43 -119q-26 -29 -92 -67q-55 -32 -75 -52q-32 -33 -32 -81q0 -53 53 -85
q48 -30 117 -30q53 0 97.5 18.5t62.5 46.5q14 23 39 12z" />
    <glyph glyph-name="Agrave" unicode="&#xc0;" horiz-adv-x="741" 
d="M388 714q0 -6 -2 -13q-25 18 -98 70q-14 10 -14 29q0 6 2 12q26 -18 98 -69q14 -10 14 -29zM719 -3q-6 -3 -14 -3q-20 0 -27 17l-85 182h-446l-83 -181q-9 -18 -29 -18q-7 0 -14 3l289 622q21 44 60 44q41 0 61 -44zM578 225l-176 381q-12 25 -32 25t-31 -26l-177 -380
h416z" />
    <glyph glyph-name="Aacute" unicode="&#xc1;" horiz-adv-x="741" 
d="M464 800q0 -19 -15 -29l-97 -70q-2 7 -2 13q0 19 14 29l98 69q2 -6 2 -12zM719 -3q-6 -3 -14 -3q-20 0 -27 17l-85 182h-446l-83 -181q-9 -18 -29 -18q-7 0 -14 3l289 622q21 44 60 44q41 0 61 -44zM578 225l-176 381q-12 25 -32 25t-31 -26l-177 -380h416z" />
    <glyph glyph-name="Acircumflex" unicode="&#xc2;" horiz-adv-x="741" 
d="M465 730q-30 -13 -54 3l-46 32l-41 -29q-25 -20 -58 -6l67 47q11 7 13 9v0q19 13 39 0zM719 -3q-6 -3 -14 -3q-20 0 -27 17l-85 182h-446l-83 -181q-9 -18 -29 -18q-7 0 -14 3l289 622q21 44 60 44q41 0 61 -44zM578 225l-176 381q-12 25 -32 25t-31 -26l-177 -380h416z
" />
    <glyph glyph-name="Atilde" unicode="&#xc3;" horiz-adv-x="741" 
d="M468 765q0 -18 -14 -29.5t-31 -11.5t-57 11q-47 13 -60 7q-17 -8 -24 -25q-1 6 -1 12v1q0 32 20 41q10 4 23 4t59 -14q40 -11 53 -5q20 9 27 28q5 -10 5 -19zM719 -3q-6 -3 -14 -3q-20 0 -27 17l-85 182h-446l-83 -181q-9 -18 -29 -18q-7 0 -14 3l289 622q21 44 60 44
q41 0 61 -44zM578 225l-176 381q-12 25 -32 25t-31 -26l-177 -380h416z" />
    <glyph glyph-name="Adieresis" unicode="&#xc4;" horiz-adv-x="741" 
d="M461 754q0 -26 -30 -26q-31 0 -31 26t31 26q30 0 30 -26zM337 754q0 -26 -30 -26t-30 26t30 26t30 -26zM719 -3q-6 -3 -14 -3q-20 0 -27 17l-85 182h-446l-83 -181q-9 -18 -29 -18q-7 0 -14 3l289 622q21 44 60 44q41 0 61 -44zM578 225l-176 381q-12 25 -32 25t-31 -26
l-177 -380h416z" />
    <glyph glyph-name="Aring" unicode="&#xc5;" horiz-adv-x="741" 
d="M434 762q0 -23 -17 -38.5t-40 -15.5q-24 0 -41 15.5t-17 38.5q0 22 17 38t41 16q23 0 40 -16t17 -38zM719 -3q-6 -3 -14 -3q-20 0 -27 17l-85 182h-446l-83 -181q-9 -18 -29 -18q-7 0 -14 3l289 622q21 44 60 44q41 0 61 -44zM422 762q0 17 -13 29.5t-32 12.5
t-32.5 -12.5t-13.5 -29.5q0 -18 13.5 -30.5t32.5 -12.5t32 12.5t13 30.5zM578 225l-176 381q-12 25 -32 25t-31 -26l-177 -380h416z" />
    <glyph glyph-name="AE" unicode="&#xc6;" horiz-adv-x="1128" 
d="M1085 657q0 -32 -31 -32h-483q-6 0 -6 -5v-258h434q0 -33 -31 -33h-403v-291q0 -6 6 -6h451q31 0 31 -32q14 0 -18 0h-125h-345q-32 0 -32 30v299h-250l-205 -321q-11 -17 -31 -17q-8 0 -15 5l397 622q25 39 64 39h592zM533 362v263h-40q-22 0 -38 -25l-152 -238h230z
" />
    <glyph glyph-name="Ccedilla" unicode="&#xc7;" horiz-adv-x="723" 
d="M680 463q-7 -3 -14 -3q-19 0 -28 15q-40 72 -110 113.5t-152 41.5q-125 0 -213 -88.5t-88 -213.5t88 -214t213 -89q71 0 134.5 32.5t106.5 89.5q9 13 25 13q10 0 18 -6q-43 -72 -116.5 -115t-157.5 -46v-35q0 -17 -10.5 -29.5t-24.5 -12.5h-1v78q-129 10 -218 106
t-89 228q0 138 97.5 236t235.5 98q99 0 181.5 -54t122.5 -145z" />
    <glyph glyph-name="Egrave" unicode="&#xc8;" horiz-adv-x="669" 
d="M331 714q0 -6 -2 -13q-25 18 -98 70q-14 10 -14 29q0 6 2 12q26 -18 98 -69q14 -10 14 -29zM626 657q0 -32 -31 -32h-482q-6 0 -6 -6v-258h433q0 -32 -30 -32h-403v-291q0 -6 5 -6h451q31 0 31 -32q15 0 -18 0h-126h-343q-32 0 -32 30v595q0 32 32 32h519z" />
    <glyph glyph-name="Eacute" unicode="&#xc9;" horiz-adv-x="669" 
d="M507 800q0 -19 -15 -29l-97 -70q-2 7 -2 13q0 19 14 29l98 69q2 -6 2 -12zM626 657q0 -32 -31 -32h-482q-6 0 -6 -6v-258h433q0 -32 -30 -32h-403v-291q0 -6 5 -6h451q31 0 31 -32q15 0 -18 0h-126h-343q-32 0 -32 30v595q0 32 32 32h519z" />
    <glyph glyph-name="Ecircumflex" unicode="&#xca;" horiz-adv-x="669" 
d="M438 730q-30 -13 -53 3l-46 32l-41 -29q-26 -20 -59 -6l68 47q10 7 13 9v0q19 13 39 0zM626 657q0 -32 -31 -32h-482q-6 0 -6 -6v-258h433q0 -32 -30 -32h-403v-291q0 -6 5 -6h451q31 0 31 -32q15 0 -18 0h-126h-343q-32 0 -32 30v595q0 32 32 32h519z" />
    <glyph glyph-name="Edieresis" unicode="&#xcb;" horiz-adv-x="669" 
d="M463 754q0 -26 -30 -26t-30 26t30 26t30 -26zM340 754q0 -26 -31 -26q-30 0 -30 26t30 26q31 0 31 -26zM626 657q0 -32 -31 -32h-482q-6 0 -6 -6v-258h433q0 -32 -30 -32h-403v-291q0 -6 5 -6h451q31 0 31 -32q15 0 -18 0h-126h-343q-32 0 -32 30v595q0 32 32 32h519z
" />
    <glyph glyph-name="Igrave" unicode="&#xcc;" horiz-adv-x="213" 
d="M139 714q0 -6 -2 -13q-26 18 -98 70q-14 10 -14 29q0 6 2 12q26 -18 98 -69q14 -10 14 -29zM120 -6h-2q-13 0 -22 9t-9 22v636q33 0 33 -31v-636z" />
    <glyph glyph-name="Iacute" unicode="&#xcd;" horiz-adv-x="210" 
d="M198 800q0 -18 -15 -29l-97 -70q-3 7 -3 13q0 18 15 29l97 69q3 -6 3 -12zM120 -6h-2q-13 0 -21.5 9t-8.5 22v636q32 0 32 -31v-636z" />
    <glyph glyph-name="Icircumflex" unicode="&#xce;" horiz-adv-x="207" 
d="M198 730q-30 -13 -54 3l-45 32l-42 -29q-25 -20 -58 -6l67 47q11 7 13 9v0q20 13 39 0zM118 -6h-2q-12 0 -21 9t-9 22v636q32 0 32 -31v-636z" />
    <glyph glyph-name="Idieresis" unicode="&#xcf;" horiz-adv-x="198" 
d="M179 754q0 -26 -30 -26t-30 26t30 26t30 -26zM81 754q0 -26 -30 -26q-31 0 -31 26t31 26q30 0 30 -26zM113 -6h-2q-13 0 -21.5 9t-8.5 22v636q32 0 32 -31v-636z" />
    <glyph glyph-name="Ntilde" unicode="&#xd1;" horiz-adv-x="717" 
d="M455 765q0 -18 -14 -29.5t-31 -11.5t-57 11q-47 13 -60 7q-17 -8 -24 -25q-1 6 -1 12v1q0 32 20 41q10 4 23 4t59 -14q40 -11 53 -5q20 9 27 28q5 -10 5 -19zM632 26q0 -32 -29 -32q-14 0 -23 11l-479 617v-597q0 -31 -32 -31v635q0 32 29 32q12 0 21 -9l481 -620v599
q0 30 32 30v-635z" />
    <glyph glyph-name="Ograve" unicode="&#xd2;" horiz-adv-x="742" 
d="M287 714q0 -6 -3 -13q-25 18 -97 70q-15 10 -15 29q0 6 3 12q26 -18 97 -69q15 -10 15 -29zM710 330q0 -140 -99.5 -239t-239.5 -99t-239.5 99t-99.5 239q0 139 99.5 238t239.5 99t239.5 -99t99.5 -238zM678 330q0 126 -90 215.5t-217 89.5t-217 -89.5t-90 -215.5
q0 -127 90 -216.5t217 -89.5t217 89.5t90 216.5z" />
    <glyph glyph-name="Oacute" unicode="&#xd3;" horiz-adv-x="742" 
d="M547 800q0 -18 -15 -29l-97 -70q-2 7 -2 13q0 18 14 29l97 69q3 -6 3 -12zM710 330q0 -140 -99.5 -239t-239.5 -99t-239.5 99t-99.5 239q0 139 99.5 238t239.5 99t239.5 -99t99.5 -238zM678 330q0 126 -90 215.5t-217 89.5t-217 -89.5t-90 -215.5q0 -127 90 -216.5
t217 -89.5t217 89.5t90 216.5z" />
    <glyph glyph-name="Ocircumflex" unicode="&#xd4;" horiz-adv-x="742" 
d="M477 730q-30 -13 -54 3l-45 32l-42 -29q-25 -20 -58 -6l67 47q11 7 14 9h-1q20 13 39 0zM710 330q0 -140 -99.5 -239t-239.5 -99t-239.5 99t-99.5 239q0 139 99.5 238t239.5 99t239.5 -99t99.5 -238zM678 330q0 126 -90 215.5t-217 89.5t-217 -89.5t-90 -215.5
q0 -127 90 -216.5t217 -89.5t217 89.5t90 216.5z" />
    <glyph glyph-name="Otilde" unicode="&#xd5;" horiz-adv-x="742" 
d="M451 765q0 -18 -13.5 -29.5t-31.5 -11.5q-17 0 -57 11q-46 13 -60 7q-17 -8 -23 -25q-2 6 -2 12v1q1 32 20 41q10 4 24 4q12 0 58 -14q40 -11 54 -5q19 9 27 28q4 -10 4 -19zM710 330q0 -140 -99.5 -239t-239.5 -99t-239.5 99t-99.5 239q0 139 99.5 238t239.5 99
t239.5 -99t99.5 -238zM678 330q0 126 -90 215.5t-217 89.5t-217 -89.5t-90 -215.5q0 -127 90 -216.5t217 -89.5t217 89.5t90 216.5z" />
    <glyph glyph-name="Odieresis" unicode="&#xd6;" horiz-adv-x="742" 
d="M458 754q0 -26 -30 -26t-30 26t30 26t30 -26zM334 754q0 -26 -30 -26t-30 26t30 26t30 -26zM710 330q0 -140 -99.5 -239t-239.5 -99t-239.5 99t-99.5 239q0 139 99.5 238t239.5 99t239.5 -99t99.5 -238zM678 330q0 126 -90 215.5t-217 89.5t-217 -89.5t-90 -215.5
q0 -127 90 -216.5t217 -89.5t217 89.5t90 216.5z" />
    <glyph glyph-name="Oslash" unicode="&#xd8;" horiz-adv-x="765" 
d="M722 661l-96 -97q91 -99 91 -233q0 -141 -99.5 -241t-239.5 -100q-133 0 -231 92l-77 -77q-18 -19 -38 -5l98 99q-91 98 -91 232q0 141 99.5 241t239.5 100q134 0 231 -92l77 77q17 18 36 4zM587 558q-89 82 -209 82q-127 0 -217 -90.5t-90 -218.5q0 -121 82 -210z
M685 331q0 121 -82 210l-4 -4l-430 -432q89 -83 209 -83q127 0 217 91t90 218z" />
    <glyph glyph-name="Ugrave" unicode="&#xd9;" horiz-adv-x="762" 
d="M372 714q0 -6 -2 -13q-26 18 -98 70q-15 10 -15 29q0 6 3 12q26 -18 97 -69q15 -10 15 -29zM698 661v-335q0 -152 -93 -244q-88 -88 -224 -88t-224 88q-93 92 -93 244v335q32 0 32 -32v-300q0 -136 78.5 -219.5t206.5 -83.5t206.5 83.5t78.5 219.5v301q0 31 32 31z" />
    <glyph glyph-name="Uacute" unicode="&#xda;" horiz-adv-x="762" 
d="M511 800q0 -19 -15 -29l-97 -70q-3 7 -3 13q0 19 15 29l97 69q3 -6 3 -12zM698 661v-335q0 -152 -93 -244q-88 -88 -224 -88t-224 88q-93 92 -93 244v335q32 0 32 -32v-300q0 -136 78.5 -219.5t206.5 -83.5t206.5 83.5t78.5 219.5v301q0 31 32 31z" />
    <glyph glyph-name="Ucircumflex" unicode="&#xdb;" horiz-adv-x="762" 
d="M472 730q-30 -13 -53 3l-46 32l-41 -29q-26 -20 -58 -6l67 47q10 7 13 9v0q19 13 39 0zM698 661v-335q0 -152 -93 -244q-88 -88 -224 -88t-224 88q-93 92 -93 244v335q32 0 32 -32v-300q0 -136 78.5 -219.5t206.5 -83.5t206.5 83.5t78.5 219.5v301q0 31 32 31z" />
    <glyph glyph-name="Udieresis" unicode="&#xdc;" horiz-adv-x="762" 
d="M466 754q0 -26 -30 -26q-31 0 -31 26t31 26q30 0 30 -26zM342 754q0 -26 -30 -26t-30 26t30 26t30 -26zM698 661v-335q0 -152 -93 -244q-88 -88 -224 -88t-224 88q-93 92 -93 244v335q32 0 32 -32v-300q0 -136 78.5 -219.5t206.5 -83.5t206.5 83.5t78.5 219.5v301
q0 31 32 31z" />
    <glyph glyph-name="germandbls" unicode="&#xdf;" horiz-adv-x="619" 
d="M576 183q0 -182 -250 -182h-160q0 32 31 32h129q218 0 218 150q0 157 -218 157h-49q-30 0 -30 32h67q191 0 191 128q0 123 -191 123h-38q-103 0 -147 -55.5t-44 -184.5v-360q0 -32 -32 -32v392q0 139 51 203q53 69 172 69h38q223 0 223 -155q0 -104 -101 -141
q140 -40 140 -176z" />
    <glyph glyph-name="agrave" unicode="&#xe0;" horiz-adv-x="529" 
d="M272 541q0 -6 -3 -12q-25 18 -97 69q-15 11 -15 29q0 6 3 13q25 -18 97 -69q15 -11 15 -30zM476 -6q-32 0 -32 32v201q0 86 -56 147t-134 61q-79 0 -134.5 -61t-55.5 -147t52 -142.5t131 -56.5q96 0 149 81q13 -10 13 -25q0 -13 -9 -22q-61 -66 -153 -66t-153.5 66
t-61.5 165t65 169.5t157 70.5t157 -70.5t65 -169.5v-233z" />
    <glyph glyph-name="aacute" unicode="&#xe1;" horiz-adv-x="529" 
d="M351 627q0 -18 -15 -29l-97 -69q-2 6 -2 12q0 19 14 30l98 69q2 -7 2 -13zM476 -6q-32 0 -32 32v201q0 86 -56 147t-134 61q-79 0 -134.5 -61t-55.5 -147t52 -142.5t131 -56.5q96 0 149 81q13 -10 13 -25q0 -13 -9 -22q-61 -66 -153 -66t-153.5 66t-61.5 165t65 169.5
t157 70.5t157 -70.5t65 -169.5v-233z" />
    <glyph glyph-name="acircumflex" unicode="&#xe2;" horiz-adv-x="529" 
d="M351 558q-30 -14 -54 3l-45 31l-42 -28q-25 -21 -58 -7l67 47q11 8 13 10v-1q20 14 39 0zM476 -6q-32 0 -32 32v201q0 86 -56 147t-134 61q-79 0 -134.5 -61t-55.5 -147t52 -142.5t131 -56.5q96 0 149 81q13 -10 13 -25q0 -13 -9 -22q-61 -66 -153 -66t-153.5 66
t-61.5 165t65 169.5t157 70.5t157 -70.5t65 -169.5v-233z" />
    <glyph glyph-name="atilde" unicode="&#xe3;" horiz-adv-x="529" 
d="M345 593q0 -18 -14 -29.5t-32 -11.5q-16 0 -56 11q-47 12 -61 6q-16 -7 -23 -24q-1 5 -1 11v1q0 32 20 41q10 5 23 5t59 -14q39 -12 53 -5q20 8 27 28q5 -10 5 -19zM476 -6q-32 0 -32 32v201q0 86 -56 147t-134 61q-79 0 -134.5 -61t-55.5 -147t52 -142.5t131 -56.5
q96 0 149 81q13 -10 13 -25q0 -13 -9 -22q-61 -66 -153 -66t-153.5 66t-61.5 165t65 169.5t157 70.5t157 -70.5t65 -169.5v-233z" />
    <glyph glyph-name="adieresis" unicode="&#xe4;" horiz-adv-x="529" 
d="M329 581q0 -25 -31 -25q-30 0 -30 25q0 26 30 26q31 0 31 -26zM205 581q0 -25 -31 -25q-30 0 -30 25q0 26 30 26q31 0 31 -26zM476 -6q-32 0 -32 32v201q0 86 -56 147t-134 61q-79 0 -134.5 -61t-55.5 -147t52 -142.5t131 -56.5q96 0 149 81q13 -10 13 -25q0 -13 -9 -22
q-61 -66 -153 -66t-153.5 66t-61.5 165t65 169.5t157 70.5t157 -70.5t65 -169.5v-233z" />
    <glyph glyph-name="aring" unicode="&#xe5;" horiz-adv-x="529" 
d="M317 589q0 -22 -17 -38t-41 -16t-40.5 16t-16.5 38q0 23 16.5 38.5t40.5 15.5t41 -15.5t17 -38.5zM476 -6q-32 0 -32 32v201q0 86 -56 147t-134 61q-79 0 -134.5 -61t-55.5 -147t52 -142.5t131 -56.5q96 0 149 81q13 -10 13 -25q0 -13 -9 -22q-61 -66 -153 -66t-153.5 66
t-61.5 165t65 169.5t157 70.5t157 -70.5t65 -169.5v-233zM305 589q0 18 -13.5 30.5t-32.5 12.5t-32.5 -12.5t-13.5 -30.5q0 -17 13.5 -29.5t32.5 -12.5t32.5 12.5t13.5 29.5z" />
    <glyph glyph-name="ae" unicode="&#xe6;" horiz-adv-x="935" 
d="M903 248q1 -7 -15.5 -14.5t-16.5 -14.5h-395q6 -79 63 -133.5t135 -54.5q96 0 156 79q10 13 26 13q9 0 17 -6q-30 -54 -83.5 -86t-115.5 -32t-115 31.5t-83 84.5v-122q-32 0 -32 32v201q0 86 -56 147t-134 61q-79 0 -134.5 -61t-55.5 -147t52 -142.5t131 -56.5
q96 0 149 81q13 -9 13 -25q0 -13 -9 -22q-61 -66 -153 -66t-153.5 66t-61.5 165t65 169.5t157 70.5q68 0 123.5 -40.5t81.5 -106.5q25 67 83.5 109.5t131.5 42.5q92 0 158.5 -65t70.5 -158zM871 255q-8 78 -64.5 131t-132.5 53q-78 0 -135 -54.5t-63 -133.5h389q5 0 6 4z
" />
    <glyph glyph-name="ccedilla" unicode="&#xe7;" horiz-adv-x="490" 
d="M458 323q-24 -11 -40 11q-25 47 -68.5 74.5t-95.5 27.5q-79 0 -134.5 -60t-55.5 -145q0 -84 55.5 -144t134.5 -60q93 0 150 80q10 13 26 13q9 0 17 -5q-57 -106 -171 -119v-38q0 -17 -10.5 -29.5t-24.5 -12.5h-1v80q-87 6 -147.5 74t-60.5 161q0 98 65 167.5t157 69.5
q68 0 123.5 -39.5t80.5 -105.5z" />
    <glyph glyph-name="egrave" unicode="&#xe8;" horiz-adv-x="524" 
d="M257 541q0 -6 -2 -12q-25 18 -98 69q-14 11 -14 29q0 6 2 13q26 -18 98 -69q14 -11 14 -30zM492 244q0 -12 -9.5 -20.5t-22.5 -8.5h-395q6 -79 62.5 -133.5t134.5 -54.5q97 0 157 79q9 13 25 13q10 0 18 -5q-31 -55 -84.5 -87t-115.5 -32q-95 0 -162.5 69.5t-67.5 166.5
q0 98 67.5 167t162.5 69q92 0 159 -65t71 -158zM459 251q-7 78 -63.5 131t-133.5 53q-78 0 -134.5 -54.5t-62.5 -133.5h389q4 0 5 4z" />
    <glyph glyph-name="eacute" unicode="&#xe9;" horiz-adv-x="524" 
d="M383 627q0 -18 -14 -29l-98 -69q-2 6 -2 12q0 19 15 30l97 69q2 -7 2 -13zM492 244q0 -12 -9.5 -20.5t-22.5 -8.5h-395q6 -79 62.5 -133.5t134.5 -54.5q97 0 157 79q9 13 25 13q10 0 18 -5q-31 -55 -84.5 -87t-115.5 -32q-95 0 -162.5 69.5t-67.5 166.5q0 98 67.5 167
t162.5 69q92 0 159 -65t71 -158zM459 251q-7 78 -63.5 131t-133.5 53q-78 0 -134.5 -54.5t-62.5 -133.5h389q4 0 5 4z" />
    <glyph glyph-name="ecircumflex" unicode="&#xea;" horiz-adv-x="524" 
d="M360 558q-30 -14 -53 3l-46 31l-41 -28q-25 -21 -58 -7l67 47q11 8 13 10v-1q19 14 39 0zM492 244q0 -12 -9.5 -20.5t-22.5 -8.5h-395q6 -79 62.5 -133.5t134.5 -54.5q97 0 157 79q9 13 25 13q10 0 18 -5q-31 -55 -84.5 -87t-115.5 -32q-95 0 -162.5 69.5t-67.5 166.5
q0 98 67.5 167t162.5 69q92 0 159 -65t71 -158zM459 251q-7 78 -63.5 131t-133.5 53q-78 0 -134.5 -54.5t-62.5 -133.5h389q4 0 5 4z" />
    <glyph glyph-name="edieresis" unicode="&#xeb;" horiz-adv-x="524" 
d="M353 581q0 -25 -30 -25t-30 25q0 26 30 26t30 -26zM230 581q0 -25 -31 -25q-30 0 -30 25q0 26 30 26q31 0 31 -26zM492 244q0 -12 -9.5 -20.5t-22.5 -8.5h-395q6 -79 62.5 -133.5t134.5 -54.5q97 0 157 79q9 13 25 13q10 0 18 -5q-31 -55 -84.5 -87t-115.5 -32
q-95 0 -162.5 69.5t-67.5 166.5q0 98 67.5 167t162.5 69q92 0 159 -65t71 -158zM459 251q-7 78 -63.5 131t-133.5 53q-78 0 -134.5 -54.5t-62.5 -133.5h389q4 0 5 4z" />
    <glyph glyph-name="igrave" unicode="&#xec;" horiz-adv-x="194" 
d="M129 541q0 -6 -2 -12q-25 18 -97 69q-15 11 -15 29q0 6 3 13q25 -18 97 -69q14 -11 14 -30zM113 437q0 13 0 -16v-115v-312q-32 0 -32 30v445q32 0 32 -32z" />
    <glyph glyph-name="iacute" unicode="&#xed;" horiz-adv-x="194" 
d="M187 627q0 -18 -15 -29l-97 -69q-2 6 -2 12q0 19 14 30l98 69q2 -7 2 -13zM113 437q0 13 0 -16v-115v-312q-32 0 -32 30v445q32 0 32 -32z" />
    <glyph glyph-name="icircumflex" unicode="&#xee;" horiz-adv-x="201" 
d="M196 558q-31 -14 -54 3l-46 31l-41 -28q-25 -21 -58 -7l67 47q11 8 13 10v-1q19 14 39 0zM118 437q0 13 0 -16v-115v-312q-32 0 -32 30v445q32 0 32 -32z" />
    <glyph glyph-name="idieresis" unicode="&#xef;" horiz-adv-x="193" 
d="M170 581q0 -25 -30 -25t-30 25q0 26 30 26t30 -26zM85 581q0 -25 -30 -25t-30 25q0 26 30 26t30 -26zM115 437q0 13 0 -16v-115v-312q-32 0 -32 30v445q32 0 32 -32z" />
    <glyph glyph-name="ntilde" unicode="&#xf1;" horiz-adv-x="550" 
d="M366 593q0 -18 -13.5 -29.5t-31.5 -11.5q-17 0 -57 11q-46 12 -60 6q-17 -7 -23 -24q-2 5 -2 11v1q1 32 20 41q10 5 24 5q12 0 58 -14q40 -12 54 -5q19 8 27 28q4 -10 4 -19zM497 -7q-13 0 -22.5 9.5t-9.5 22.5v222q0 79 -55.5 134.5t-134.5 55.5q-78 0 -134 -55.5
t-56 -134.5v-221q0 -32 -32 -33v254q0 92 65.5 157t156.5 65q92 0 157 -65t65 -157v-254z" />
    <glyph glyph-name="ograve" unicode="&#xf2;" 
d="M265 541q0 -6 -3 -12q-25 18 -97 69q-15 11 -15 29q0 6 3 13q26 -18 97 -69q15 -11 15 -30zM505 231q0 -98 -69.5 -168t-167.5 -70q-97 0 -166.5 70t-69.5 168q0 99 69.5 169t166.5 70q98 0 167.5 -70t69.5 -169zM472 231q0 85 -59.5 146t-144.5 61q-84 0 -144 -61
t-60 -146t60 -145.5t144 -60.5q85 0 144.5 60.5t59.5 145.5z" />
    <glyph glyph-name="oacute" unicode="&#xf3;" 
d="M390 627q0 -18 -14 -29l-98 -69q-2 6 -2 12q0 19 15 30l97 69q2 -7 2 -13zM505 231q0 -98 -69.5 -168t-167.5 -70q-97 0 -166.5 70t-69.5 168q0 99 69.5 169t166.5 70q98 0 167.5 -70t69.5 -169zM472 231q0 85 -59.5 146t-144.5 61q-84 0 -144 -61t-60 -146t60 -145.5
t144 -60.5q85 0 144.5 60.5t59.5 145.5z" />
    <glyph glyph-name="ocircumflex" unicode="&#xf4;" 
d="M366 558q-30 -14 -53 3q-1 0 -46 31l-41 -28q-26 -21 -59 -7l68 47q10 8 13 10l-1 -1q20 14 40 0zM505 231q0 -98 -69.5 -168t-167.5 -70q-97 0 -166.5 70t-69.5 168q0 99 69.5 169t166.5 70q98 0 167.5 -70t69.5 -169zM472 231q0 85 -59.5 146t-144.5 61q-84 0 -144 -61
t-60 -146t60 -145.5t144 -60.5q85 0 144.5 60.5t59.5 145.5z" />
    <glyph glyph-name="otilde" unicode="&#xf5;" 
d="M359 593q0 -18 -14 -29.5t-32 -11.5q-17 0 -57 11q-46 12 -60 6q-17 -7 -23 -24q-2 5 -2 11v1q1 32 20 41q10 5 24 5q12 0 59 -14q39 -12 53 -5q19 8 27 28q5 -10 5 -19zM505 231q0 -98 -69.5 -168t-167.5 -70q-97 0 -166.5 70t-69.5 168q0 99 69.5 169t166.5 70
q98 0 167.5 -70t69.5 -169zM472 231q0 85 -59.5 146t-144.5 61q-84 0 -144 -61t-60 -146t60 -145.5t144 -60.5q85 0 144.5 60.5t59.5 145.5z" />
    <glyph glyph-name="odieresis" unicode="&#xf6;" 
d="M369 581q0 -25 -31 -25q-30 0 -30 25q0 26 30 26q31 0 31 -26zM245 581q0 -25 -30 -25q-31 0 -31 25q0 26 31 26q30 0 30 -26zM505 231q0 -98 -69.5 -168t-167.5 -70q-97 0 -166.5 70t-69.5 168q0 99 69.5 169t166.5 70q98 0 167.5 -70t69.5 -169zM472 231
q0 85 -59.5 146t-144.5 61q-84 0 -144 -61t-60 -146t60 -145.5t144 -60.5q85 0 144.5 60.5t59.5 145.5z" />
    <glyph glyph-name="divide" unicode="&#xf7;" horiz-adv-x="489" 
d="M279 373q0 -15 -9 -26t-21 -11q-13 0 -21.5 11t-8.5 26t8.5 26t21.5 11q12 0 21 -11t9 -26zM431 250q0 -29 -29 -32h-349q1 32 32 32h346zM279 102q0 -15 -9 -26t-21 -11q-13 0 -21.5 11t-8.5 26t8.5 26t21.5 11q12 0 21 -11t9 -26z" />
    <glyph glyph-name="oslash" unicode="&#xf8;" horiz-adv-x="542" 
d="M522 471l-74 -75q61 -68 61 -160q0 -98 -69.5 -168t-167.5 -70q-91 0 -158 62l-53 -54q-19 -18 -39 -5l75 76q-61 68 -61 159q0 99 69.5 169t166.5 70q92 0 159 -62l54 54q17 17 37 4zM409 390q-59 53 -137 53q-84 0 -144 -60.5t-60 -146.5q0 -78 52 -137zM476 236
q0 79 -51 137l-289 -290q59 -53 136 -53q85 0 144.5 60.5t59.5 145.5z" />
    <glyph glyph-name="ugrave" unicode="&#xf9;" horiz-adv-x="550" 
d="M266 541q0 -6 -2 -12q-26 18 -98 69q-15 11 -15 29q0 6 3 13q26 -18 97 -69q15 -11 15 -30zM497 230q0 -98 -65 -167t-157 -69q-91 0 -156.5 69t-65.5 167v239q32 0 32 -30v-209q0 -84 56 -144t134 -60q79 0 134.5 60t55.5 144v209q0 30 32 30v-239z" />
    <glyph glyph-name="uacute" unicode="&#xfa;" horiz-adv-x="550" 
d="M403 627q0 -18 -14 -29l-98 -69q-2 6 -2 12q0 19 14 30l98 69q2 -7 2 -13zM497 230q0 -98 -65 -167t-157 -69q-91 0 -156.5 69t-65.5 167v239q32 0 32 -30v-209q0 -84 56 -144t134 -60q79 0 134.5 60t55.5 144v209q0 30 32 30v-239z" />
    <glyph glyph-name="ucircumflex" unicode="&#xfb;" horiz-adv-x="550" 
d="M380 558q-30 -14 -53 3q-1 0 -46 31l-41 -28q-26 -21 -58 -7l67 47q10 8 13 10v-1q19 14 39 0zM497 230q0 -98 -65 -167t-157 -69q-91 0 -156.5 69t-65.5 167v239q32 0 32 -30v-209q0 -84 56 -144t134 -60q79 0 134.5 60t55.5 144v209q0 30 32 30v-239z" />
    <glyph glyph-name="udieresis" unicode="&#xfc;" horiz-adv-x="550" 
d="M376 581q0 -25 -31 -25q-30 0 -30 25q0 26 30 26q31 0 31 -26zM252 581q0 -25 -30 -25q-31 0 -31 25q0 26 31 26q30 0 30 -26zM497 230q0 -98 -65 -167t-157 -69q-91 0 -156.5 69t-65.5 167v239q32 0 32 -30v-209q0 -84 56 -144t134 -60q79 0 134.5 60t55.5 144v209
q0 30 32 30v-239z" />
    <glyph glyph-name="ydieresis" unicode="&#xff;" horiz-adv-x="551" 
d="M382 581q0 -25 -30 -25q-31 0 -31 25q0 26 31 26q30 0 30 -26zM258 581q0 -25 -30 -25t-30 25q0 26 30 26t30 -26zM497 236q0 -93 -61 -158q-8 -9 -21 -9q-14 0 -23 11q73 62 73 156v203q0 30 32 30v-233zM472 -53q0 -35 -24.5 -57.5t-61.5 -22.5h-171q1 32 32 32h139
q54 0 54 48q0 52 -58 52h-107q-92 0 -157 69.5t-65 167.5v233q32 0 32 -30v-203q0 -85 56 -145t134 -60h107q39 0 64.5 -23.5t25.5 -60.5z" />
    <glyph glyph-name="OE" unicode="&#x152;" horiz-adv-x="1273" 
d="M1230 657q0 -32 -31 -32h-483q-6 0 -6 -5v-258h434q0 -33 -31 -33h-403v-291q0 -6 6 -6h451q31 0 31 -32q14 0 -18 0h-126h-344q-32 0 -32 30v157q-41 -88 -124 -142t-183 -54q-140 0 -239.5 100t-99.5 241t99.5 241t239.5 100q100 0 183 -54t124 -143v149q0 32 32 32
h520zM678 332q0 127 -90 218t-217 91t-217 -91t-90 -218q0 -128 90 -218.5t217 -90.5t217 90.5t90 218.5z" />
    <glyph glyph-name="oe" unicode="&#x153;" horiz-adv-x="986" 
d="M943 247q0 -11 -9.5 -19.5t-22.5 -8.5h-395q6 -79 63 -133.5t134 -54.5q97 0 157 79q9 13 25 13q10 0 18 -6q-31 -54 -84.5 -86t-115.5 -32q-72 0 -130 41.5t-84 108.5q-26 -68 -86 -110.5t-134 -42.5q-98 0 -167 70t-69 169t69 168.5t167 69.5q74 0 134 -42t86 -110
q26 67 84 108.5t130 41.5q92 0 159 -65t71 -159zM910 255q-7 78 -63.5 131t-133.5 53t-134 -54.5t-63 -133.5h389q4 0 5 4zM483 235q0 85 -60 145.5t-144 60.5t-144 -60.5t-60 -145.5t60 -145.5t144 -60.5t144 60.5t60 145.5z" />
    <glyph glyph-name="Ydieresis" unicode="&#x178;" horiz-adv-x="722" 
d="M446 754q0 -26 -31 -26q-30 0 -30 26t30 26q31 0 31 -26zM322 754q0 -26 -31 -26q-30 0 -30 26t30 26q31 0 31 -26zM701 655l-325 -434v-227q-32 0 -32 31v198l-323 432h1q8 7 18 7q14 0 24 -11l297 -397l297 396q8 12 23 12q11 0 20 -7z" />
    <glyph glyph-name="florin" unicode="&#x192;" horiz-adv-x="479" 
d="M411 665q-14 -25 -38 -24v0q-33 1 -61.5 -22.5t-34.5 -57.5l-43 -204h99q19 0 19 -19h-122l-71 -341q-10 -44 -48 -76t-83 -32l-28 1q14 25 37 24v0q33 -1 61.5 22.5t35.5 57.5l55 264l17 80h-87q-19 0 -19 19v0h110l42 200q9 45 47.5 76.5t82.5 31.5h29z" />
    <glyph glyph-name="circumflex" unicode="&#x2c6;" horiz-adv-x="300" 
d="M284 726q-30 -13 -53 3q-1 1 -46 32l-41 -28q-26 -21 -59 -7l68 47q10 7 13 9v0q19 13 39 0z" />
    <glyph glyph-name="caron" unicode="&#x2c7;" horiz-adv-x="251" 
d="M252 783l-67 -47q-11 -7 -13 -10v1q-19 -14 -39 0l-80 56q30 13 54 -4l46 -31l41 28q25 21 58 7z" />
    <glyph glyph-name="breve" unicode="&#x2d8;" horiz-adv-x="258" 
d="M249 796q-4 -35 -32 -59t-66 -24t-65.5 24t-32.5 59h12q6 -25 30.5 -41.5t55.5 -16.5q32 0 56.5 16.5t29.5 41.5h12z" />
    <glyph glyph-name="dotaccent" unicode="&#x2d9;" horiz-adv-x="146" 
d="M114 754q0 -26 -30 -26q-31 0 -31 26t31 26q30 0 30 -26z" />
    <glyph glyph-name="ring" unicode="&#x2da;" horiz-adv-x="203" 
d="M168 761q0 -22 -17 -37.5t-40 -15.5q-24 0 -41 15.5t-17 37.5q0 23 17 38.5t41 15.5q23 0 40 -15.5t17 -38.5zM156 761q0 18 -13 30.5t-32 12.5t-32.5 -12.5t-13.5 -30.5q0 -17 13.5 -29.5t32.5 -12.5t32 12.5t13 29.5z" />
    <glyph glyph-name="ogonek" unicode="&#x2db;" horiz-adv-x="176" 
d="M141 -134q-12 -12 -33 -12t-36 13q-18 15 -18 41q-2 79 70 89v-5q-49 -13 -49 -66q0 -43 66 -52v-8z" />
    <glyph glyph-name="tilde" unicode="&#x2dc;" horiz-adv-x="271" 
d="M241 768q0 -18 -14 -29.5t-32 -11.5q-16 0 -57 11q-46 13 -60 6q-16 -7 -23 -24q-2 5 -2 12v0q1 33 20 41q11 5 24 5q12 0 59 -14q39 -11 53 -5q19 8 27 28q5 -10 5 -19z" />
    <glyph glyph-name="hungarumlaut" unicode="&#x2dd;" horiz-adv-x="268" 
d="M247 796q0 -18 -15 -29l-97 -69q-3 6 -3 12q0 19 15 29l97 70q3 -7 3 -13zM168 796q0 -18 -15 -29l-97 -69q-3 6 -3 12q0 19 15 29l97 70q3 -7 3 -13z" />
    <glyph glyph-name="endash" unicode="&#x2013;" horiz-adv-x="530" 
d="M492 248q0 -30 -32 -30h-407q0 32 31 32h408v-2z" />
    <glyph glyph-name="emdash" unicode="&#x2014;" horiz-adv-x="707" 
d="M661 248q0 -19 -19 -19h-589v1q0 18 19 18h589z" />
    <glyph glyph-name="quoteleft" unicode="&#x2018;" horiz-adv-x="134" 
d="M103 577q0 -15 -9 -26t-21 -11q-13 0 -21.5 11t-8.5 26q0 22 10 46q12 28 30 37v-12q-15 -13 -12 -34h2q12 1 21 -10t9 -27z" />
    <glyph glyph-name="quoteright" unicode="&#x2019;" horiz-adv-x="134" 
d="M103 624q0 -23 -10 -47q-12 -27 -31 -37v12q16 14 13 35h-2q-12 -1 -21 10t-9 27q0 15 8.5 26t21.5 11q12 0 21 -11t9 -26z" />
    <glyph glyph-name="quotesinglbase" unicode="&#x201a;" horiz-adv-x="130" 
d="M114 37q0 -22 -11 -46q-12 -27 -30 -37v12q16 14 12 34h-1q-13 0 -22 11t-9 26q0 16 9 26.5t22 10.5q12 0 21 -10.5t9 -26.5z" />
    <glyph glyph-name="quotedblleft" unicode="&#x201c;" horiz-adv-x="215" 
d="M183 577q0 -15 -9 -26t-21 -11q-13 0 -22 11t-9 26q0 22 11 46q12 28 30 37v-12q-16 -13 -12 -34h2q12 1 21 -10t9 -27zM103 577q0 -15 -9 -26t-21 -11q-13 0 -21.5 11t-8.5 26q0 22 10 46q12 28 30 37v-12q-15 -13 -12 -34h2q12 1 21 -10t9 -27z" />
    <glyph glyph-name="quotedblright" unicode="&#x201d;" horiz-adv-x="210" 
d="M178 624q0 -23 -11 -47q-11 -27 -30 -37v12q16 14 12 35h-1q-13 -1 -21.5 10t-8.5 27q0 15 8.5 26t21.5 11q12 0 21 -11t9 -26zM103 624q0 -23 -10 -47q-12 -27 -31 -37v12q16 14 13 35h-2q-12 -1 -21 10t-9 27q0 15 8.5 26t21.5 11q12 0 21 -11t9 -26z" />
    <glyph glyph-name="quotedblbase" unicode="&#x201e;" horiz-adv-x="202" 
d="M189 37q0 -22 -11 -46q-12 -27 -30 -37v12q16 14 12 34h-2q-12 0 -21 11t-9 26q0 16 9 26.5t21 10.5q13 0 22 -10.5t9 -26.5zM114 37q0 -22 -11 -46q-12 -27 -30 -37v12q16 14 12 34h-1q-13 0 -22 11t-9 26q0 16 9 26.5t22 10.5q12 0 21 -10.5t9 -26.5z" />
    <glyph glyph-name="dagger" unicode="&#x2020;" horiz-adv-x="267" 
d="M224 572h-80v-240q-19 0 -19 19v221h-64q-18 0 -18 19h82v75h2q17 0 17 -19v-56h61q19 0 19 -19z" />
    <glyph glyph-name="daggerdbl" unicode="&#x2021;" horiz-adv-x="251" 
d="M235 413h-81v-81q-19 0 -19 19v62h-63q-19 0 -19 19v0h82v140h-63q-19 0 -19 19v0h82v75h1q18 0 18 -19v-56h62q19 0 19 -19h-81v-140h62q19 0 19 -19z" />
    <glyph glyph-name="bullet" unicode="&#x2022;" horiz-adv-x="212" 
d="M158 231q0 -25 -15.5 -42t-36.5 -17q-22 0 -37.5 17t-15.5 42q0 24 15.5 41t37.5 17q21 0 36.5 -17t15.5 -41z" />
    <glyph glyph-name="ellipsis" unicode="&#x2026;" horiz-adv-x="408" 
d="M367 31q0 -16 -9 -26.5t-22 -10.5q-12 0 -21 10.5t-9 26.5q0 15 9 26t21 11q13 0 22 -11t9 -26zM240 31q0 -16 -9 -26.5t-21 -10.5q-13 0 -21.5 10.5t-8.5 26.5q0 15 8.5 26t21.5 11q12 0 21 -11t9 -26zM114 31q0 -16 -9 -26.5t-21 -10.5q-13 0 -22 10.5t-9 26.5
q0 15 9 26t22 11q12 0 21 -11t9 -26z" />
    <glyph glyph-name="perthousand" unicode="&#x2030;" horiz-adv-x="962" 
d="M874 118q0 -49 -35.5 -84.5t-86.5 -35.5t-86.5 35.5t-35.5 84.5q0 50 35.5 85.5t86.5 35.5t86.5 -35.5t35.5 -85.5zM298 545q0 -50 -36 -85.5t-86 -35.5q-51 0 -87 35.5t-36 85.5q0 49 36 84.5t87 35.5q50 0 86 -35.5t36 -84.5zM531 663l-379 -648q-13 -23 -36 -14
l380 649q13 21 35 13zM600 118q0 -49 -36 -84.5t-87 -35.5q-50 0 -86 35.5t-36 84.5q0 50 36 85.5t86 35.5q51 0 87 -35.5t36 -85.5zM850 118q0 40 -28.5 68t-69.5 28q-40 0 -69 -28t-29 -68q0 -39 29 -67t69 -28q41 0 69.5 28t28.5 67zM274 545q0 39 -29 67t-69 28
q-41 0 -69.5 -28t-28.5 -67q0 -40 28.5 -68t69.5 -28q40 0 69 28t29 68zM575 118q0 40 -28.5 68t-69.5 28q-40 0 -69 -28t-29 -68q0 -39 29 -67t69 -28q41 0 69.5 28t28.5 67z" />
    <glyph glyph-name="guilsinglleft" unicode="&#x2039;" horiz-adv-x="304" 
d="M272 147h-1l-191 86q-27 12 -27 36t27 36l191 86h1q6 -20 -13 -28l-170 -76q-15 -8 -15 -18q0 -11 15 -18l172 -77q17 -9 11 -27z" />
    <glyph glyph-name="guilsinglright" unicode="&#x203a;" horiz-adv-x="304" 
d="M272 269q0 -24 -27 -36l-191 -86h-1q-6 18 11 27l172 77q15 7 15 18q0 10 -15 18l-170 76q-19 8 -13 28h1l191 -86q27 -12 27 -36z" />
    <glyph glyph-name="fraction" unicode="&#x2044;" horiz-adv-x="327" 
d="M295 662l-231 -652q-8 -23 -32 -14l231 653q11 22 32 13v0z" />
    <glyph glyph-name="trademark" unicode="&#x2122;" horiz-adv-x="623" 
d="M570 378h-4q-17 0 -17 16v222l-107 -205h1q-8 -14 -20 -14q-13 0 -20 14l-107 205v-223q-1 -15 -17 -15h-3v265q1 12 14 12q9 0 13 -7l118 -227q1 -2 2 -3q1 1 1 3l119 227q3 7 12 7q15 0 15 -13v-264zM267 649q0 -16 -16 -16h-91v-255h-4q-17 0 -17 16v239h-90
q-17 0 -17 16v4h235v-4z" />
    <glyph glyph-name="integral" unicode="&#x222b;" horiz-adv-x="277" 
d="M261 665q-8 -25 -31 -24v0q-34 1 -58 -23.5t-24 -58.5v-563q0 -44 -31 -75.5t-75 -31.5l-31 1q7 25 31 24v0q33 -2 57.5 22.5t24.5 59.5v563q0 44 31 75t75 31h31z" />
    <glyph glyph-name="notequal" unicode="&#x2260;" 
d="M505 304q0 -29 -29 -32h-175l-14 -86h199q0 -28 -28 -32h-176l-22 -137q-3 -19 -23 -19l25 156h-209q1 32 32 32h182l14 86h-209q1 32 32 32h182l24 146q3 18 22 18l-26 -164h199z" />
    <glyph glyph-name="lessequal" unicode="&#x2264;" horiz-adv-x="492" 
d="M453 98v0l-372 135q-28 10 -28 36t28 36l372 136v0q8 -19 -11 -26l-354 -129q-14 -5 -14 -17q0 -10 14 -16l354 -129q19 -7 11 -26zM460 -2h-387q-19 0 -19 19h387q19 0 19 -19v0z" />
    <glyph glyph-name="greaterequal" unicode="&#x2265;" horiz-adv-x="492" 
d="M460 269q0 -26 -27 -36l-373 -135v0q-8 19 11 26q81 30 354 129q14 6 14 16q0 12 -14 17l-354 129q-19 7 -11 26v0l373 -136q27 -10 27 -36zM460 17q0 -19 -19 -19h-388v0q0 19 20 19h387z" />
    </font>
</defs>
</svg>
